<?xml version="1.0" encoding="utf-8"?>
<!-- Svg Vector Icons : http://www.onlinewebfonts.com/icon -->
<!DOCTYPE svg PUBLIC "-//W3C//DTD SVG 1.1//EN" "http://www.w3.org/Graphics/SVG/1.1/DTD/svg11.dtd">
<svg version="1.1" xmlns="http://www.w3.org/2000/svg" xmlns:xlink="http://www.w3.org/1999/xlink" x="0px" y="0px" viewBox="0 0 256 256" enable-background="new 0 0 256 256" xml:space="preserve">
<metadata> Svg Vector Icons : http://www.onlinewebfonts.com/icon </metadata>
<g><g><path fill="#fff" d="M10,128c0.1-65.5,53-118,118.1-118c65.7,0,118,53.2,117.9,118.1c-0.1,65.4-53,117.8-118,117.9C62.9,246.1,9.9,193,10,128z M230.7,128c0.1-56.5-45.9-102.7-102.6-102.7c-56.6,0-102.7,45.5-102.8,102.6C25.2,184.5,70.9,230.5,128,230.7C184.6,230.8,230.6,184.8,230.7,128z"/><path fill="#fff" d="M127.7,136.2c-2.6,2.6-5,5-7.5,7.5c-2.5,2.5-5.1,5.1-7.6,7.6c-4.7,4.6-9.4,9.3-14.1,13.9c-2,1.9-4.3,2.6-6.8,1.6c-2.6-1.1-4.3-3.2-4.4-6.1c-0.1-1.8,0.7-3.3,2-4.6c7-7,14-14,21-21c2.5-2.5,5.1-5,7.7-7.5c0.2-0.2,0.4-0.4,0.8-0.9c-0.3-0.2-0.7-0.4-0.9-0.6c-9.4-9.4-18.9-18.7-28.3-28.1c-2.3-2.3-2.8-5.2-1.3-7.8c2.6-4.2,7.3-4.7,10.5-1.5c9.4,9.4,18.9,18.8,28.3,28.1c0.2,0.2,0.5,0.6,0.7,0.9c0.3-0.3,0.5-0.4,0.7-0.6c8.4-8.4,16.8-16.7,25.2-25c1.2-1.2,2.3-2.4,3.5-3.5c2.7-2.6,6.3-2.6,9,0c2.3,2.3,2.8,5.1,1.3,7.8c-0.3,0.6-0.8,1.1-1.3,1.6c-8.2,8.2-16.4,16.4-24.7,24.7c-1.4,1.4-2.9,2.8-4.4,4.2c1.3,1.4,2.6,2.7,3.8,4c0.2,0.2,0.4,0.3,0.6,0.5c8.2,8.2,16.4,16.4,24.7,24.7c2.3,2.3,2.8,5.1,1.3,7.7c-2.6,4.3-7.3,4.8-10.5,1.5c-4.8-4.9-9.6-9.7-14.4-14.5c-4.7-4.7-9.5-9.4-14.2-14C128.1,136.5,127.9,136.4,127.7,136.2z"/></g></g>
</svg>