<?xml version="1.0" encoding="utf-8"?>
<!-- Svg Vector Icons : http://www.onlinewebfonts.com/icon -->
<!DOCTYPE svg PUBLIC "-//W3C//DTD SVG 1.1//EN" "http://www.w3.org/Graphics/SVG/1.1/DTD/svg11.dtd">
<svg version="1.1" xmlns="http://www.w3.org/2000/svg" xmlns:xlink="http://www.w3.org/1999/xlink" x="0px" y="0px" viewBox="0 0 256 256" enable-background="new 0 0 256 256" xml:space="preserve">
<metadata> Svg Vector Icons : http://www.onlinewebfonts.com/icon </metadata>
<g><g><g><path fill="#fff" d="M117.2,13.5c-14.9,1.2-29.3,5.4-42.6,12c-19.4,9.8-33.8,22.8-45.8,41.1c-8.6,13.1-14.5,27.9-17.4,44c-1.9,10.4-1.8,30.8,0.1,40.8c8,41.5,35.7,75.2,74.1,89.6c6.3,2.4,8.8,2.5,10.9,0.3c1.5-1.5,1.7-2.7,1.7-12.7v-10.9H87.7c-9.1,0-11.2-0.2-14.5-1.8c-6.5-3-10.9-7.8-15.1-16.4c-3.6-7.6-8.3-13.3-14-17.4c-5.7-4.1-1.2-7.2,6.9-4.9c3.6,1.1,5.6,2.3,9.1,6.1c2.5,2.6,5.9,6.5,7.5,8.7c1.8,2.6,4.6,5,7.5,6.6c4,2.2,5.3,2.6,10.8,2.5c3.4-0.1,7.6-0.7,9.4-1.2c2.9-1.1,3.3-1.7,5-6.6c1-2.9,2.7-6.5,3.7-7.8l1.9-2.4l-8.5-1.8c-15.3-3.2-24-7.7-31.9-16.4c-8.1-8.9-12.7-22.7-12.7-38.6c0-12.4,2.4-20.4,8.9-29.2l2.8-3.9l-1-5.1c-1.7-9,0.7-25,4-26.3c3.5-1.3,17.6,3.8,27,9.9l3.9,2.5l7.7-1.5c10.6-2.2,33.6-2.2,44.2-0.1l7.5,1.6l7.3-4.2c8.1-4.6,15.6-7.4,21.1-7.7l3.7-0.2l1.6,4.1c2.1,5.3,2.8,17.1,1.4,22.6l-1,4.2l3.7,5.6c6.6,10.1,7.6,13.8,7.6,28c-0.1,10.4-0.3,13.5-1.9,19.1c-4.6,16.2-14.5,26.7-30.2,32.4c-2,0.7-7.4,2.2-12.1,3.2l-8.5,1.8l1.8,2.2c1,1.3,2.6,4.3,3.5,6.6c1.7,3.9,1.8,6.3,2.1,25.9c0.2,14.4,0.6,21.9,1.2,22.6c2.8,3.5,6.7,2.8,20.1-3.6c16.2-7.5,32.8-21.2,43.9-36c10.3-13.6,18.6-32.8,21.6-49.8c1.9-10.5,1.9-29.3,0-39.8c-4.8-26.6-19.6-52.6-39.9-69.5C180.1,20.8,148.7,10.7,117.2,13.5z"/></g></g></g>
</svg>