<?xml version="1.0" encoding="utf-8"?>
<!-- Svg Vector Icons : http://www.onlinewebfonts.com/icon -->
<!DOCTYPE svg PUBLIC "-//W3C//DTD SVG 1.1//EN" "http://www.w3.org/Graphics/SVG/1.1/DTD/svg11.dtd">
<svg version="1.1" xmlns="http://www.w3.org/2000/svg" xmlns:xlink="http://www.w3.org/1999/xlink" x="0px" y="0px" viewBox="0 0 256 256" enable-background="new 0 0 256 256" xml:space="preserve">
<metadata> Svg Vector Icons : http://www.onlinewebfonts.com/icon </metadata>
<g><g><g><path fill="#fff" d="M118.9,10.4C83.3,13,50,32.5,30,62.5c-11.9,17.8-18.2,36.5-19.7,58.2c-2.3,33.4,10.3,66.6,34.4,90.7c18.5,18.4,40.6,29.5,67,33.5c9.1,1.4,23.6,1.4,32.8,0c26.4-4,48.5-15.1,67-33.5c18.5-18.4,29.6-40.5,33.5-67c1.4-9.1,1.4-23.6,0-32.8c-4-26.4-15.1-48.5-33.5-67C191,24.3,165,12.4,136.2,10.3C129,9.8,126.5,9.8,118.9,10.4z M76.4,53.3c7.1,2.4,11.9,8.4,12.7,16.1c0.6,5.1-2.1,11.7-6,15.1c-1,0.9-3.2,2.3-4.9,3.1c-2.7,1.2-3.5,1.4-7.2,1.4c-4.9,0-7.8-0.9-11.2-3.5c-6.8-5.1-9.2-13.8-6.1-21.8c1.8-4.9,7.4-9.7,12.6-10.9C69.2,52.1,73.5,52.3,76.4,53.3z M179.2,101.4c5.4,1.3,9.5,3.8,13.8,8c6,6,9.4,13.9,10.3,24.4c0.2,2.8,0.5,19.7,0.5,37.5v32.5h-15.9H172l0-30.4c0.1-28.3,0-30.5-0.7-33.1c-1.8-5.6-4.2-8.8-8.6-10.8c-2.3-1.1-3.2-1.2-7.4-1.2c-4.4,0-5.1,0.1-7.5,1.3c-5.3,2.6-9.1,8.3-10.1,14.9c-0.2,1.8-0.5,15.1-0.5,31.3v28.1h-15.7h-15.7v-50.6v-50.6h15h15v6.7v6.7l2.1-2.8c3.6-4.8,10.3-9.5,16.9-11.9C159.5,99.8,172.9,99.8,179.2,101.4z M86.5,153.5v50.3H70.8H55.1v-50.3v-50.3h15.7h15.7V153.5z"/></g></g></g>
</svg>