<?xml version="1.0" encoding="utf-8"?>
<!-- Svg Vector Icons : http://www.onlinewebfonts.com/icon -->
<!DOCTYPE svg PUBLIC "-//W3C//DTD SVG 1.1//EN" "http://www.w3.org/Graphics/SVG/1.1/DTD/svg11.dtd">
<svg version="1.1" xmlns="http://www.w3.org/2000/svg" xmlns:xlink="http://www.w3.org/1999/xlink" x="0px" y="0px" viewBox="0 0 256 256" enable-background="new 0 0 256 256" xml:space="preserve">
<metadata> Svg Vector Icons : http://www.onlinewebfonts.com/icon </metadata>
<g><g><path fill="#fff" d="M128,10C63.5,10,10,63.5,10,128c0,64.5,53.5,118,118,118c64.5,0,118-53.5,118-118C246,63.5,192.5,10,128,10z M128,230.3c-56.6,0-102.3-45.6-102.3-102.3C25.7,71.4,71.4,25.7,128,25.7c56.6,0,102.3,45.6,102.3,102.3C230.3,184.6,184.6,230.3,128,230.3z"/><path fill="#fff" d="M179.9,76.1H76.1c-4.7,0-7.9,3.2-7.9,7.9c0,4.7,3.2,7.9,7.9,7.9h105.4c4.7,0,7.9-3.2,7.9-7.9C189.4,79.2,184.6,76.1,179.9,76.1z"/><path fill="#fff" d="M179.9,120.1H76.1c-4.7,0-7.9,3.2-7.9,7.9c0,4.7,3.2,7.9,7.9,7.9h105.4c4.7,0,7.9-3.2,7.9-7.9C189.4,123.3,184.6,120.1,179.9,120.1z"/><path fill="#fff" d="M179.9,164.2H76.1c-4.7,0-7.9,3.2-7.9,7.9c0,4.7,3.2,7.9,7.9,7.9h105.4c4.7,0,7.9-3.2,7.9-7.9C189.4,167.3,184.6,164.2,179.9,164.2z"/></g></g>
</svg>